<svg id="Layer_1" data-name="Layer 1" xmlns="http://www.w3.org/2000/svg" xmlns:xlink="http://www.w3.org/1999/xlink" viewBox="0 0 950 660"><defs><radialGradient id="radial-gradient" cx="623.14" cy="409.94" r="361.12" gradientUnits="userSpaceOnUse"><stop offset="0" stop-color="#a64fdb"/><stop offset="0.73" stop-color="#a64fdb" stop-opacity="0"/></radialGradient><clipPath id="clip-path"><polygon points="599.66 428.84 679.11 619.11 698.97 619.11 645.79 417.48 599.66 428.84" fill="#eeeff4"/></clipPath><clipPath id="clip-path-2"><polygon points="536.24 428.84 456.79 619.11 436.93 619.11 490.11 417.48 536.24 428.84" fill="#eeeff4"/></clipPath></defs><title>header-ill</title><path d="M750.88,530.46H75.12c-16.84,0-34.38,1.34-51.13.2-6.18-.43-7-3-1.81-3.47,2.06-.2,4.25,0,6.32,0H750.88Z" fill="#eeeff4"/><rect x="382.85" y="125.62" width="185.1" height="3.27" fill="#eeeff4"/><rect x="382.85" y="144.42" width="185.1" height="3.27" fill="#eeeff4"/><rect x="382.85" y="163.22" width="185.1" height="3.27" fill="#eeeff4"/><rect x="270.45" y="369.46" width="461.43" height="160.92" fill="#eeeff4"/><rect x="186.73" y="336.34" width="633.88" height="14.43" fill="#eeeff4"/><rect x="199.32" y="365.32" width="576.45" height="14.43" fill="#eeeff4"/><path d="M287.35,185.75c-5.32,3.17-28.6,1.78-32.57,1.78H221.87c-8.24,0-25,3.8-31.33-3.16,5.73-.87,12.31-.11,18.15-.11h79.74A1.83,1.83,0,0,1,287.35,185.75Z" fill="#eeeff4"/><rect x="212.42" y="185.9" width="3.27" height="35.42" fill="#eeeff4"/><rect x="249.61" y="133.75" width="3.27" height="52.15" fill="#eeeff4"/><path d="M268.92,133.94a13.17,13.17,0,0,1-4.83,1.45c-2.28.11-4.6,0-6.88,0H213.43c-5.32,0-11,1.08-16.21-.41-2.92-.84-3.74-2-.53-2.87,3-.81,7.38,0,10.5,0h56c1.32,0,3.25-.36,4.52,0C269.81,132.7,269.77,133.37,268.92,133.94Z" fill="#eeeff4"/><path d="M212.32,133.75H209V84.69H176.41c-2.43,0-12.26,1.4-13.26-1.73-.7-2.16,2.15-1.55,3.54-1.55,5.22,0,10.43,0,15.65,0h30Z" fill="#eeeff4"/><polygon points="853.45 528.82 744.63 344.18 757.13 336.97 870.19 528.82 853.45 528.82" fill="#eeeff4"/><polygon points="217.09 529.36 217.09 344.18 204.59 336.97 91.72 528.82 217.09 529.36" fill="#eeeff4"/><polygon points="884.72 528.82 775.78 344.18 788.27 336.97 901.46 528.82 884.72 528.82" fill="#eeeff4"/><polygon points="740.7 344.44 737.42 344.44 737.42 80.3 581.4 80.3 581.4 339.75 578.13 339.75 578.13 77.02 740.7 77.02 740.7 344.44" fill="#eeeff4"/><polygon points="569.59 345.9 566.31 345.9 566.31 57.3 752.52 57.3 752.52 339.75 749.24 339.75 749.24 60.58 569.59 60.58 569.59 345.9" fill="#eeeff4"/><polygon points="384.48 345.9 381.21 345.9 381.21 57.3 567.95 57.3 567.95 60.58 384.48 60.58 384.48 345.9" fill="#eeeff4"/><path d="M685,239.65c-11-16.89-33.81-27.89-33.81-27.89a96.26,96.26,0,0,0,10.57,33c8.85,16,20.65,17.31,26.71,33h1.63c.07-9.47-2.76-24.2-34.29-56.25l2.33-2.3c32.47,33,35.33,48.52,35.24,58.55h.91S696,256.55,685,239.65Z" fill="#eeeff4"/><path d="M685,181.34s-2.69,15.22,3.51,43.1c5.56,25,9.86,42.1,10.44,53.29h1l.06-.46c2.58-17.17,6.48-43.11-12.68-86.39l3-1.33c19.54,44.14,15.57,70.65,12.94,88.18h.38c1.81-18.51,3.53-24.71,4.63-47C709.48,205,685,181.34,685,181.34Z" fill="#eeeff4"/><path d="M728.07,188.52s-5.91,3.81-11.83,33.81a543.27,543.27,0,0,0-7.5,55.4h1.31c1.05-4.27,2.06-8.38,3.07-12.41,7-28.06,12-48.33,12.9-72.07l3.26.12c-.89,24.08-6,44.49-13,72.73-.95,3.79-1.89,7.64-2.88,11.63h.91c8.23-20,15.15-28.07,17.55-52C734.41,200.36,728.07,188.52,728.07,188.52Z" fill="#eeeff4"/><path d="M665.68,277.73v26.16L685.42,336H715.5l19.74-32.08V277.73Zm7,6.23h19.86l-2.31,2-17.55,15.16Zm13.95,39.37-10.14-16.49,19.8-19.23Z" fill="#eeeff4"/><rect x="578.55" y="143.73" width="160.51" height="16.9" fill="#eeeff4"/><path d="M701.4,87.67v42h5.07v-42Zm0,0v42h5.07v-42Zm0,0v42h5.07v-42Zm0,0v42h5.07v-42Zm0,0v42h5.07v-42Zm0,0v42h5.07v-42Zm0,0v42h5.07v-42Zm-122.86-9v60H739.06v-60ZM608,132.48H592.79l-5.1-23.82h6.84L589,84.73a1.64,1.64,0,0,1,3.19-.74l5.72,24.67h.9v-22a1.64,1.64,0,0,1,3.28,0v22h2.78l3.82-19.33a1.64,1.64,0,0,1,3.21.63l-3.69,18.7h5Zm45.34-1.82L666.61,83.9l9.76,2.77-13.23,46.75Zm25.54,2.76-9.76-2.76L682.39,83.9l9.76,2.77Zm32.63-.46H696.33V84.36h15.22Zm-5.08-45.29H701.4v42h5.07Zm-5.07,0v42h5.07v-42Zm0,0v42h5.07v-42Zm0,0v42h5.07v-42Zm0,0v42h5.07v-42Zm0,0v42h5.07v-42Zm0,0v42h5.07v-42Zm0,0v42h5.07v-42Z" fill="#eeeff4"/><polygon points="355.44 336.97 340.19 336.97 335.09 313.15 360.54 313.15 355.44 336.97" fill="#eeeff4"/><path d="M773.34,189.87c-1.6,1-2.38-6.72-2.55-9-.57-7.59.3-15.2.3-22.8V33H327.62c-4.76,0-11.17,1.35-15.58.4a3.31,3.31,0,0,1-2.82-2.76c1.4-.92,2.56-.75,4.09-.91,16-1.71,33.06,0,49.09,0h412V174.35c0,3.66,1.35,10.44,0,13.87A3.48,3.48,0,0,1,773.34,189.87Z" fill="#eeeff4"/><rect x="382.85" y="88.01" width="185.1" height="3.27" fill="#eeeff4"/><rect x="382.85" y="106.81" width="185.1" height="3.27" fill="#eeeff4"/><path d="M870,253.61a5.4,5.4,0,0,1-1.46.55c-8.27,1.93-17.59.79-26.07.79H790.65c-3.66,0-17,2.49-17.77-3.1,5.76-1.31,13.16-.17,19.1-.17h72.49c.94,0,5.54-.6,6.1.09S870.77,253.19,870,253.61Z" fill="#eeeff4"/><path d="M848.73,253.32h-3.27c0-5.3-.47-10.61-.55-15.91,0-3.49,0-7,.18-10.47.11-1.6-.09-6.63,1.23-7.81,2.73-2.43,2.41,3.34,2.41,5v29.23Z" fill="#eeeff4"/><rect x="808.27" y="253.32" width="3.27" height="52.15" fill="#eeeff4"/><path d="M866.81,305.85c-2.89,2.56-8.41,1.25-11.95,1.25h-48.5c-3.18,0-14.85,2.25-15-3.11,7.13-1.48,15.89-.16,23.17-.16h35.65c5.94,0,12.1-.45,18,.06A4.92,4.92,0,0,1,866.81,305.85Z" fill="#eeeff4"/><path d="M897.15,356.37c-2.92,2.57-8.8,1.43-12.19,1.43H848.84V305.46h3.27v49.07h35.53c2.55,0,8.56-1,10.48.65A4.55,4.55,0,0,1,897.15,356.37Z" fill="#eeeff4"/><rect x="749.24" y="372.02" width="3.27" height="158.35" fill="#eeeff4"/><path d="M930.9,530.46H814.06c-5.7,0-11.6.45-17.28,0-2.56-.2-6.15-.29-2.57-3,4.07-3.14,15.76-.24,20.63-.23h73.7c7.85,0,15.68-.83,23.53-.9a83.5,83.5,0,0,1,11.73.58c1.41.19,4.81.2,5.91,1.13C929.74,528,932.07,530.43,930.9,530.46Z" fill="#eeeff4"/><path d="M360.58,110.43a7.73,7.73,0,0,1-.83,1.1c-2.2-3.25-.85-11.09-.85-15V49.08q0-12.11,0-24.22c0-3.78-1.5-13.53,3.1-15.39,2,13.43.18,28.62.18,42.26V83.46C362.18,90,364.43,104.26,360.58,110.43Z" fill="#eeeff4"/><path d="M832.46,305.83,827.81,287c3-2.51,16.17-17.45,20.46-13.06-2.86,2.25-5.62,4.75-8.41,7.11-.76.65-8.59,6.31-8.39,7.13l4.17,16.9Z" fill="#eeeff4"/><path d="M828.35,288.63c.19-.15-6.9-8.08-7.19-9-.67-2.08.57-3.11,3.07-1.86,2.82,1.4,4.75,6.4,6.68,8.81Z" fill="#eeeff4"/><path d="M211.39,113,210,110l21.78-10.46,13.11,10.66c-2.05,2.53-4.91.4-7.16-1.23-.79-.57-5.93-5.8-6.4-5.58Z" fill="#eeeff4"/><path d="M248.36,102a7.4,7.4,0,0,1-3.3,1.19c-4.48.68-9,0-13.53,0V99.84s13.37,0,14.49,0C249.13,100,249.57,101,248.36,102Z" fill="#eeeff4"/><path d="M893.62,372.82a1.36,1.36,0,0,1-.92-.26c-2.51-2.17-4.54-6.67-6.53-9.42l-4.34-6,2.65-1.91,11.83,16.37C896.53,371.88,894.85,372.81,893.62,372.82Z" fill="#eeeff4"/><rect x="787.64" y="244.85" width="16.37" height="3.27" transform="translate(151.77 774.95) rotate(-56.58)" fill="#eeeff4"/><rect x="475.65" y="164.86" width="3.27" height="38.75" fill="#eeeff4"/><path d="M478.93,201a10.41,10.41,0,0,0-3.28,0,11,11,0,1,0,3.28,0Zm-1.64,18.56a7.71,7.71,0,1,1,7.7-7.71A7.73,7.73,0,0,1,477.29,219.53Z" fill="#eeeff4"/><rect x="239.41" y="318.55" width="81.74" height="18.42" fill="#eeeff4"/><path d="M239.42,300.13v18.43h81.74V300.13Zm56.08,12.66-48.43,0V305.9l48.43,0Z" fill="#eeeff4"/><path d="M709.16,648.89c-.82,1.21-7,1.31-7.51,1.31H671.27c-2.7,0-11.09,1.32-12.54-1.42,4.14-1.92,9.92-.76,14.37-.76h29.33c1.06,0,5.85-.67,6.55.06C709.29,648.4,709.32,648.67,709.16,648.89Z" fill="#1d2833"/><path d="M386.23,203.74a203.9,203.9,0,0,1-5.07,36.13c-1.27,4.85-9.93,3.59-9.93,3.59s-3.59,16.48-19.86,16.27-31.06-22.19-31.06-22.19v12s-3.59,8.24-13.31,14.79c0,0-23.24-.84-29.16-24.72l18.38-15.84,29.58-36.34L340,171.41l40.56,13.1Z" fill="#b353ee"/><ellipse cx="377.14" cy="222.33" rx="11.83" ry="3.17" transform="translate(30.31 489.48) rotate(-68.13)" fill="#fff"/><path d="M328.39,587.28A40.58,40.58,0,0,1,316,598.84c-3.38,2,.77,12.1,4.89,20.27s10.33,12.11,23,12.39,16.9-2.81,15.21-9.29a33.4,33.4,0,0,1-10.7-5.92,21.45,21.45,0,0,1-7.89-20.56Z" fill="#7938a1"/><path d="M335,590.23a40.51,40.51,0,0,1-12.4,11.57c-3.38,2,.77,12.1,4.89,20.27s10.32,12.11,23,12.39,16.9-2.82,15.21-9.3a33.24,33.24,0,0,1-10.7-5.91,21.46,21.46,0,0,1-7.89-20.57Z" fill="#b353ee"/><rect x="356.28" y="185.77" width="3.28" height="44.8" transform="translate(17.51 443.89) rotate(-64.88)" fill="#fff"/><path d="M343.67,523c-9,27.67-11.53,32.39-17.69,64.3l9.69,7.55,38.64-78.93Z" fill="#1d2833"/><path d="M300.87,415c28.74.43,65.08,11.41,95.08,23.24S438.62,467,438.62,475s-7.18,33.5-36.34,67.45-52.81,59.31-52.81,59.31-7.19.85-17.33-10.56c0,0,19.86-52.4,33-76.48L243.83,490.23l27.46-57.89Z" fill="#293847"/><path d="M383.06,276.63c6.34-7.19,8.24-11.41,4.65-12.26s-8.24,4.51-16.06,13.45-8.87,14.16-20.92,19.37-32.32,13-32.32,13L320,338l21.62-10.19,19.86-18.38Z" fill="#7938a1"/><path d="M367.07,281.35H411a0,0,0,0,1,0,0v9.72a22,22,0,0,1-22,22h0a22,22,0,0,1-22-22v-9.72A0,0,0,0,1,367.07,281.35Z" fill="#eeeff4"/><ellipse cx="389.04" cy="281.35" rx="21.97" ry="8.75" fill="#b353ee"/><path d="M408.54,285.38c-3.66,2.8-11,4.71-19.49,4.71s-15.84-1.91-19.5-4.71c.28-4.19,8.91-7.56,19.5-7.56S408.26,281.19,408.54,285.38Z" fill="#1d2833"/><path d="M277.84,444.45c-4,16.76,7.26,21.27,32.61,20.14s75.49,7.33,78.31,35.78L341.23,514l-73.6-5.57-20.18-21.47,23-42.49Z" fill="#1d2833"/><path d="M326.51,348.81s14.08-11,22-20.28,9.58-9.58,16.9-10.42,9.3-7.61,14.09-10.71,12.11-4.79,13.24-10.7-1.69-6.2-6.48-3.1-16.06,7-20-.28L349,316.42l-29,14.93Z" fill="#7938a1"/><path d="M277.84,239.65c-34,12.68-50.92,29.89-63.59,50.44s-47.22,94.34-46.8,127,15.41,105.54,92.8,67.34a241.64,241.64,0,0,1,19.92-44.1c13.1-22.4,37.94-24,37.94-24s-9.45-20.52-1.6-46.55c4.81-16,15.22-26,11.84-43.76S307,264.37,307,264.37s-9.17.36-19.23-11.62C279.53,242.93,277.84,239.65,277.84,239.65Z" fill="#fff"/><path d="M167.45,409.94c2.85-36.76,9.19-97.61,28.21-128s29.57-9.72,32.11,0,11.41,35.35,7.18,58.66-24.16,27.89-45.63,46.13S167.45,409.94,167.45,409.94Z" fill="#eeeff4"/><path d="M168.53,410.1l-2.17-.24c0-.56,1-6,22.25-24a199.68,199.68,0,0,1,18.71-13.73c13.23-8.9,23.69-15.93,26.56-31.76,3.64-20.1-2.58-42-5.93-53.73-.49-1.72-.91-3.22-1.24-4.46l2.12-.56c.32,1.23.74,2.72,1.22,4.42,3.4,11.93,9.71,34.12,6,54.72-3,16.74-13.83,24-27.49,33.18A201,201,0,0,0,190,387.53C169.76,404.76,168.57,409.89,168.53,410.1Z" fill="#1d2833"/><polygon points="420.01 433.61 420.01 394.31 712.86 394.31 712.86 420.08 420.01 433.61" fill="#fff"/><path d="M167.45,417.13c0,16.9,10,67.61,51.87,71S290.73,470,333.83,471.64s54.93,28.73,54.93,28.73S358.4,550.5,270,541.36c-79-8.18-99.51-67-103.59-100.57C164.19,422.23,167.45,417.13,167.45,417.13Z" fill="#eeeff4"/><path d="M274.67,343.18s6.34-16.06,22-23.66,18.17-7.61,18.17-7.61,10.77,24.51,17.22,35.5,6,13.52,20,8,57.05-22,68.45-26.19S453,330.5,453,330.5a102.11,102.11,0,0,1,15.21,15.22c8.45,10.14,13.52,12.67,9.72,14.78s-16.9-8.45-16.9-8.45-5.07,5.07-18.59,2.12-16.06-8-21.55-2.54-35.5,33-63,43.95-31.27,15.21-42.68,3.8S282.7,367.69,274.67,343.18Z" fill="#b353ee"/><path d="M414.28,287.6a5.74,5.74,0,1,1-5.74,5.74,5.74,5.74,0,0,1,5.74-5.74m0-3.27a9,9,0,1,0,9,9,9,9,0,0,0-9-9Z" fill="#eeeff4"/><rect x="445.39" y="383.32" width="138.18" height="10.99" fill="#b353ee"/><polygon points="636.89 275.68 458.99 126.83 366.02 155.57 356.49 277.73 350.15 373.33 445.38 383.32 579.77 383.32 636.89 275.68" opacity="0.5" fill="url(#radial-gradient)"/><path d="M564.17,376.18a33.34,33.34,0,0,1-17.2-4.53c-7.47-4.42-12.36-11.87-12.16-18.53a10.94,10.94,0,0,1,6.19-9.74c15.89-8.21,13.38-25.16,11-41.55-.28-1.87-.55-3.72-.79-5.54-.72-5.39,1.35-12.42,6.68-15.41,4.77-2.68,10.93-1.29,17.35,3.89,8.23,6.65,16.18,5.44,26.24,3.91,1.71-.27,3.49-.54,5.33-.78,6.88-.9,13.1,1.28,16.24,5.69,2.72,3.82,2.84,8.67.34,13.67h0L591,368l-.14.08C581.72,373.47,572.57,376.18,564.17,376.18Zm-1.06-95.57a9.47,9.47,0,0,0-4.72,1.22c-4.91,2.76-6.81,9.29-6.14,14.32.24,1.81.51,3.66.79,5.52,2.37,16,5.05,34.11-11.54,42.68a9.88,9.88,0,0,0-5.6,8.8c-.19,6.28,4.49,13.34,11.62,17.56,11.59,6.86,27.13,5.6,42.64-3.46l32.21-60.48c2.31-4.62,2.22-9.07-.25-12.54-2.91-4.09-8.74-6.09-15.21-5.24-1.83.24-3.6.51-5.31.77-10.32,1.57-18.48,2.82-27.09-4.14C569.83,281.84,566.05,280.61,563.11,280.61Z" fill="#fff"/><polygon points="599.66 428.84 679.11 619.11 698.97 619.11 645.79 417.48 599.66 428.84" fill="#eeeff4"/><g clip-path="url(#clip-path)"><path d="M654.92,476.49c-6.07,0-13-6.11-18.51-16.43a58.85,58.85,0,0,0-8.94-11.8c-6-6.57-10.68-11.75-3.36-20.83l2.36-5.76.27-.06,22.94-5.12.15.47,16.43,49.64-.09.19c-2.86,6.29-6.54,9.55-10.95,9.7Zm-27.66-53.88L625,428.05c-6.8,8.39-2.79,12.8,3.27,19.47a59.83,59.83,0,0,1,9.09,12c5.35,10,12.16,16.06,17.81,15.84,3.92-.12,7.25-3.1,9.91-8.86L649,417.77Z" fill="#fff"/><path d="M656.1,466.15a8.51,8.51,0,0,1-1-.06c-3.18-.34-5.94-2.36-8.2-6a70.7,70.7,0,0,0-6.73-8.88c-4.92-5.76-8.8-10.3-7.29-21.48l0-.25,19.71-12.77,19.45,33.19-6,11.55C665.87,461.66,661.43,466.15,656.1,466.15Zm-22.17-36c-1.36,10.51,2.19,14.66,7.07,20.38a71.93,71.93,0,0,1,6.83,9c2.07,3.33,4.55,5.18,7.39,5.49,4.94.53,9.46-3.73,10-4.26l5.6-10.82-18.58-31.68Z" fill="#fff"/><path d="M653.3,448.18a11.16,11.16,0,0,1-4.19-1c-5.84-2.39-8.62-4.67-9-7.39s1.8-6,6.92-10h0a4.46,4.46,0,0,1,3.38-.68c1.84.35,3.52,1.77,5,4.21,2.57,4.21,3.83,10.52,1.39,13.38A4.38,4.38,0,0,1,653.3,448.18Zm-5.6-17.52c-4.71,3.73-6.84,6.68-6.51,9s3,4.33,8.33,6.53c2.13.88,5,1.55,6.48-.21,2.06-2.41.89-8.2-1.49-12.1-1.33-2.17-2.77-3.42-4.29-3.71A3.44,3.44,0,0,0,647.7,430.66Z" fill="#fff"/><path d="M628,538.2l-30.71-75.5,8.17-12,.19-.05c13.14-3.61,20.43.59,30,17.31,2,3.48,4,6.62,5.72,9.39,6.39,10.15,11,17.48,8.45,28.62-3.21,13.88-14.08,30-14.19,30.18l-.12.17Zm-29.48-75.37,30.14,74.08,6.19-1.53c1.18-1.77,10.93-16.72,13.91-29.64,2.47-10.7-1.82-17.5-8.3-27.79-1.76-2.78-3.74-5.93-5.74-9.42-9.34-16.29-16-20.26-28.59-16.86Z" fill="#fff"/><path d="M630.4,531.47l-12.68-25.36-11.05-32.24,1-15.37.48,0c7.74-.44,17.36-1,24.9,17.18,1.77,4.26,3.37,7.67,4.78,10.68,4.26,9.1,6.4,13.67,3.69,22.24-3.49,11.05-10.56,22-10.63,22.1Zm-22.62-57.75,11,32,11.79,23.57c1.68-2.72,7.09-11.84,10-21,2.58-8.16.63-12.32-3.64-21.44-1.42-3-3-6.45-4.8-10.73-7.09-17.11-15.7-17-23.35-16.54Z" fill="#fff"/><path d="M630.8,512.08,616,495.51l-3-25.26h.61c10.08,0,13.05,5.75,16.15,13.87a53.69,53.69,0,0,0,3,6.1c3.79,7.08,8.09,15.1-1.48,21.59ZM617,495,631,510.63c8.25-5.87,4.6-12.69.74-19.89a54.59,54.59,0,0,1-3-6.23c-3.46-9.07-6.29-13-14.51-13.17Z" fill="#fff"/><path d="M671.86,517.14a14.9,14.9,0,0,1-8.31-2.71c-6.57-4.34-7.33-9-8.29-14.86a60.65,60.65,0,0,0-1.66-7.78c-1.09-3.69-.83-6.3.77-7.75,2.34-2.13,7.44-1.64,15.17,1.46l.17.1,10.4,9.43v19.2l-.19.16A13.24,13.24,0,0,1,671.86,517.14Zm-13.29-33.32a5,5,0,0,0-3.46,1c-1.27,1.16-1.42,3.39-.46,6.64a60.58,60.58,0,0,1,1.68,7.91c1,5.84,1.65,10.05,7.82,14.13,7.78,5.15,13.73,1.08,14.87.2v-18.2l-10-9C664.62,484.71,661.09,483.82,658.57,483.82Z" fill="#fff"/><path d="M667.24,507.84a6.18,6.18,0,0,1-2-.32c-2-.69-3.53-2.47-4.43-5.29-1.46-4.58-1.37-7.71.27-9.59s4.63-2.35,9.22-1.55l.37.07,2.72,14.53-.29.2A11.56,11.56,0,0,1,667.24,507.84Zm-.71-16c-2.19,0-3.75.51-4.65,1.54-1.34,1.54-1.36,4.41,0,8.53.79,2.47,2,4,3.74,4.6,2.63.89,5.65-.74,6.59-1.31l-2.44-13.07A20.27,20.27,0,0,0,666.53,491.82Z" fill="#fff"/><path d="M644.39,553.82,640,542.47l.08-.2c5.09-12.91,7.95-19.72,12.22-21.24,2-.72,4.27-.26,7.36,1.47,8.41,4.72,19.71,3.54,19.82,3.53l.45,0,3.43,10.8-.69.05c-.43,0-10.61.81-19.52-3.86a4.54,4.54,0,0,0-3.84-.2c-7.25,2.63-14.35,19.61-14.42,19.78Zm-3.2-11.35,3.25,8.43c1.81-4.07,7.93-16.76,14.52-19.15a5.66,5.66,0,0,1,4.72.25c7.33,3.84,15.8,3.87,18.24,3.78l-2.74-8.63c-2.25.19-12.19.71-20-3.7-2.79-1.56-4.78-2-6.47-1.39C648.89,523.41,646,530.34,641.19,542.47Z" fill="#fff"/><path d="M689.56,562.15l-.89-.19c-.74-.14-18.07-3.76-23.48-14-1.67-3.17-3.57-4.73-5.58-4.58-3.31.21-7.06,4.88-9.78,12.19l-1-.38c2.93-7.84,6.94-12.66,10.74-12.9q3.8-.21,6.62,5.16c4.49,8.51,18.17,12.36,21.82,13.25l-2-6.5c-1.92.09-9.42.07-13.69-5.31-1.84-2.32-2.1-4.61-.68-6.11,2-2.16,7.17-2.18,13.05,1.94l-.63.9c-5.31-3.73-10-3.86-11.63-2.09-1,1.09-.75,2.79.74,4.68,4.46,5.61,13.1,4.88,13.18,4.87l.45,0Z" fill="#fff"/><path d="M686.67,570.69c-3.38,0-9.28-1.41-16.87-8.87-5.4-5.3-8.39-7.3-10.68-7.2s-4.28,2.46-7.48,6.35l-1.91,2.29-.83-.7,1.9-2.29c3.39-4.11,5.44-6.6,8.26-6.74,2.64-.13,5.79,1.89,11.51,7.51,11.37,11.17,18.76,8.16,18.83,8.13l.44,1A8.29,8.29,0,0,1,686.67,570.69Z" fill="#fff"/><path d="M661.8,602.38l-3.26-8.27,1,.19c.12,0,12,2.26,13.51-4.19,1.34-5.58-1-7.21-5.16-10.16-.79-.55-1.63-1.15-2.52-1.82-5.21-3.92-10.24.23-10.45.41l-.63.53-2.91-9.68.41-.21c13.45-6.72,14.79-5.36,19.63,3l.1.18a38.47,38.47,0,0,0,5,6.46c3.9,4.35,7.27,8.1,3.5,14-5.23,8.16-17.3,9.51-17.81,9.56Zm-1.53-6.85,2.24,5.67c2.14-.31,12.16-2.11,16.59-9,3.32-5.17.36-8.47-3.4-12.65a40.6,40.6,0,0,1-5.14-6.64l-.11-.18c-4.49-7.75-5.21-9-17.78-2.77l2.18,7.28c1.69-1.12,6.4-3.56,11.16,0,.87.66,1.71,1.25,2.49,1.8,4.28,3,7.11,5,5.6,11.3S663.33,596,660.27,595.53Z" fill="#fff"/><path d="M668.35,618.16l-3.34-9,.36-.24c9.27-6.14,13.85-7.84,21.06-5.13,6.51,2.44,15.29,0,15.38,0l.5-.14L706,614.83l-.55.16c-.31.08-7.64,2-19.34-2.12-11.12-3.92-16.88,4.09-17.12,4.44Zm-2-8.55,2.34,6.31c1.88-2.1,7.93-7.54,17.74-4.08,9.58,3.38,16.22,2.57,18.13,2.21L701.6,605c-2,.5-9.55,2.1-15.55-.15C679.72,602.46,675.8,603.39,666.34,609.61Z" fill="#fff"/><path d="M699.6,599.43l-.68-.06c-10-.87-15.22-3.73-16.13-17-.26-3.81.64-6.49,2.69-8,3.78-2.75,10-.28,10.26-.18l.29.12ZM690,574.21a6.59,6.59,0,0,0-3.91,1.08c-1.72,1.25-2.48,3.61-2.24,7,.83,12.24,5.34,15,14.45,15.91L695,575.14A16,16,0,0,0,690,574.21Z" fill="#fff"/></g><polygon points="536.24 428.84 456.79 619.11 436.93 619.11 490.11 417.48 536.24 428.84" fill="#eeeff4"/><g clip-path="url(#clip-path-2)"><path d="M481,476.49h-.3c-4.4-.15-8.09-3.41-10.95-9.7l-.09-.19,16.59-50.11,23.21,5.18,2.36,5.76c7.31,9.08,2.59,14.26-3.37,20.83a58.85,58.85,0,0,0-8.94,11.8C494,470.38,487.06,476.49,481,476.49Zm-10.17-10c2.66,5.76,6,8.74,9.91,8.86,5.61.21,12.46-5.88,17.81-15.84a59.83,59.83,0,0,1,9.09-12c6.07-6.67,10.07-11.08,3.28-19.47l-.08-.13-2.18-5.31L487,417.77Z" fill="#fff"/><path d="M479.8,466.15c-5.33,0-9.77-4.49-10-4.7l-.09-.13-5.91-11.42.15-.26,19.3-32.93L503,429.48l0,.25c1.51,11.18-2.37,15.73-7.29,21.48a70.7,70.7,0,0,0-6.73,8.88c-2.26,3.64-5,5.66-8.2,6A8.51,8.51,0,0,1,479.8,466.15Zm-9.13-5.4c.55.53,5.09,4.8,10,4.26,2.83-.31,5.31-2.16,7.38-5.49a71,71,0,0,1,6.83-9c4.89-5.73,8.43-9.88,7.07-20.39l-18.32-11.87-18.58,31.68Z" fill="#fff"/><path d="M482.61,448.18a4.38,4.38,0,0,1-3.54-1.48c-2.44-2.86-1.18-9.17,1.39-13.38,1.5-2.44,3.19-3.86,5-4.21a4.51,4.51,0,0,1,3.38.68h0c5.12,4.05,7.32,7.23,6.93,10s-3.16,5-9,7.39A11.24,11.24,0,0,1,482.61,448.18Zm3.74-18.06a3.51,3.51,0,0,0-.69.07c-1.51.29-2.94,1.54-4.26,3.7-2.39,3.9-3.56,9.69-1.5,12.1,1.49,1.76,4.35,1.09,6.48.21,5.37-2.2,8-4.27,8.33-6.53s-1.8-5.28-6.5-9A3.43,3.43,0,0,0,486.35,430.12Z" fill="#fff"/><path d="M507.88,538.2l-7.52-1.86-.12-.17c-.11-.16-11-16.3-14.18-30.18-2.57-11.14,2.05-18.47,8.44-28.62,1.75-2.77,3.73-5.91,5.72-9.39,9.58-16.72,16.87-20.92,30-17.31l.2.05,8.16,12-.11.27ZM501,535.38l6.19,1.53,30.14-74.08-7.61-11.16c-12.55-3.39-19.25.57-28.58,16.86-2,3.49-4,6.64-5.74,9.42-6.49,10.29-10.78,17.09-8.31,27.79C490.1,518.66,499.85,533.61,501,535.38Z" fill="#fff"/><path d="M505.5,531.47l-.52-.8c-.07-.11-7.14-11-10.63-22.1-2.7-8.57-.57-13.14,3.7-22.23,1.41-3,3-6.43,4.77-10.69,7.54-18.18,17.17-17.63,24.9-17.18l.48,0,1,15.37,0,.1-11,32.07Zm18.33-72.05c-6.75,0-13.92,2-20,16.65-1.78,4.28-3.38,7.71-4.79,10.73-4.28,9.12-6.23,13.28-3.65,21.44,2.9,9.18,8.31,18.3,10,21l11.82-23.64,10.93-31.9-1-14.19C526.08,459.47,525,459.42,523.83,459.42Z" fill="#fff"/><path d="M505.1,512.08l-.39-.27c-9.57-6.49-5.27-14.51-1.48-21.59a55.58,55.58,0,0,0,3-6.1c3.09-8.12,6.06-13.87,16.14-13.87H523l-3.06,25.26Zm16.62-40.74c-8.22.19-11.05,4.1-14.51,13.17a54.59,54.59,0,0,1-3,6.23c-3.86,7.2-7.51,14,.74,19.89L518.86,495Z" fill="#fff"/><path d="M464,517.14a13.24,13.24,0,0,1-8.06-2.75l-.19-.16V495l10.57-9.53c7.74-3.1,12.84-3.59,15.17-1.46,1.6,1.45,1.86,4.06.77,7.75a58.83,58.83,0,0,0-1.65,7.78c-1,5.88-1.73,10.52-8.29,14.86A14.93,14.93,0,0,1,464,517.14Zm-7.16-3.42c1.14.88,7.09,4.95,14.88-.2,6.16-4.08,6.85-8.29,7.81-14.12a62,62,0,0,1,1.68-7.92c1-3.25.81-5.48-.45-6.64-2-1.78-6.78-1.22-13.94,1.63l-10,9Z" fill="#fff"/><path d="M468.66,507.84a11.56,11.56,0,0,1-5.84-1.95l-.29-.2,2.72-14.53.37-.07c4.6-.8,7.61-.29,9.22,1.55s1.73,5,.27,9.59c-.9,2.82-2.39,4.6-4.43,5.29A6.18,6.18,0,0,1,468.66,507.84Zm-4.92-2.66c.94.57,4,2.2,6.59,1.31,1.7-.58,3-2.13,3.74-4.6,1.31-4.12,1.29-7-.05-8.53s-3.92-1.89-7.84-1.25Z" fill="#fff"/><path d="M491.51,553.82l-.52-1.27c-.07-.17-7.17-17.15-14.42-19.78a4.54,4.54,0,0,0-3.84.2c-8.91,4.67-19.09,3.9-19.52,3.86l-.69-.05L456,526l.45,0c.11,0,11.42,1.19,19.82-3.53,3.09-1.73,5.35-2.19,7.37-1.47,4.26,1.52,7.12,8.33,12.21,21.24l.08.2ZM474.8,531.35a6.12,6.12,0,0,1,2.14.4c6.59,2.39,12.71,15.08,14.52,19.15l3.25-8.43c-4.79-12.13-7.7-19.06-11.49-20.41-1.69-.61-3.68-.17-6.46,1.39-7.85,4.41-17.79,3.89-20,3.7L454,535.78c2.44.09,10.9.06,18.23-3.78A5.55,5.55,0,0,1,474.8,531.35Z" fill="#fff"/><path d="M446.34,562.15l2.74-9.12.45,0c.08,0,8.73.74,13.18-4.87,1.5-1.89,1.77-3.59.74-4.68-1.67-1.78-6.32-1.65-11.63,2.09l-.63-.9c5.88-4.12,11-4.1,13.05-1.94,1.42,1.5,1.17,3.79-.68,6.11-4.27,5.38-11.76,5.4-13.69,5.31l-1.95,6.5c3.65-.9,17.34-4.75,21.82-13.25,1.9-3.58,4.09-5.3,6.63-5.16,3.79.24,7.81,5.06,10.73,12.9l-1,.38c-2.73-7.31-6.48-12-9.78-12.19-2-.15-3.92,1.41-5.59,4.58-5.41,10.25-22.74,13.87-23.48,14Z" fill="#fff"/><path d="M449.23,570.69a8.35,8.35,0,0,1-3.17-.52l.44-1c.07,0,7.46,3,18.84-8.13,5.71-5.62,8.8-7.63,11.5-7.51s4.87,2.63,8.27,6.74l1.9,2.29-.84.7L484.26,561c-3.2-3.89-5.13-6.23-7.47-6.35s-5.29,1.9-10.69,7.2C458.51,569.27,452.61,570.69,449.23,570.69Z" fill="#fff"/><path d="M474.1,602.38l-.41,0c-.51-.05-12.58-1.4-17.81-9.56-3.77-5.87-.4-9.62,3.51-14a38.43,38.43,0,0,0,5-6.46l.1-.18c4.84-8.35,6.18-9.71,19.63-3l.41.21-2.9,9.68-.64-.53c-.21-.18-5.24-4.33-10.45-.41-.88.67-1.73,1.27-2.52,1.82-4.19,2.95-6.5,4.58-5.16,10.16,1.55,6.45,13.39,4.21,13.51,4.19l1-.19ZM472.37,566c-3,0-4.35,2.31-6.92,6.74l-.11.18a40.06,40.06,0,0,1-5.14,6.64c-3.75,4.18-6.72,7.48-3.4,12.65,4.43,6.91,14.45,8.7,16.59,9l2.24-5.67c-3.06.43-12.3,1.18-13.82-5.17s1.31-8.29,5.59-11.3c.78-.55,1.62-1.14,2.5-1.8,4.75-3.59,9.46-1.15,11.15,0l2.18-7.28C477.85,567.28,474.64,566,472.37,566Z" fill="#fff"/><path d="M467.56,618.16l-.6-.85c-.24-.35-6-8.37-17.12-4.44-11.7,4.13-19,2.2-19.34,2.12l-.55-.16,3.64-11.18.5.14c.09,0,8.87,2.46,15.38,0,7.21-2.71,11.79-1,21.06,5.13l.36.24Zm-11.89-7.44a15.62,15.62,0,0,1,11.56,5.2l2.33-6.31c-9.46-6.22-13.38-7.15-19.71-4.78-6,2.25-13.52.65-15.55.15l-2.95,9.07c1.91.36,8.57,1.17,18.13-2.21A18.52,18.52,0,0,1,455.67,610.72Z" fill="#fff"/><path d="M436.3,599.43l3.57-25.08.29-.12c.26-.1,6.48-2.57,10.26.18,2.05,1.48,2.95,4.16,2.69,8-.9,13.26-6.14,16.12-16.13,17Zm4.56-24.29-3.29,23.08c9.11-.9,13.62-3.67,14.45-15.91.24-3.41-.52-5.77-2.23-7C446.92,573.21,442.09,574.71,440.86,575.14Z" fill="#fff"/></g><path d="M562.75,365.84A29.46,29.46,0,0,1,547.1,361c-9.55-6.1-16.94-17.94-12.23-26.42,4.31-7.76.15-16.71-3.51-24.61s-7.23-15.56-1.05-20.29c4.36-3.32,6.55-1.43,9.88,1.44,4.58,3.95,12.23,10.54,33,9.47,16.94-.87,27.62,1.82,32.65,8.22,5.94,7.57,3.45,19.64-.13,31.55l-1,3.16-.12-3.3s-.13-3-2-3.57-6.76.92-18.67,17.23C577.65,362.57,570.05,365.84,562.75,365.84ZM534.48,289a5.93,5.93,0,0,0-3.5,1.54c-5.49,4.2-2.31,11,1.37,19,3.77,8.13,8.06,17.35,3.47,25.6-3.92,7.08,1.4,18.28,11.87,25,10,6.41,24.62,8,35.43-6.84,9.39-12.87,16.08-18.8,19.88-17.63a3.67,3.67,0,0,1,2.28,2.37c3.15-10.94,5-21.74-.29-28.49-4.79-6.11-15.17-8.66-31.74-7.81-21.21,1.12-29.07-5.68-33.77-9.73C537.43,290.16,536.07,289,534.48,289Z" fill="#fff"/><path d="M701.45,404c-5.49,3-5.49,4.22-11.83,0s-18.17-3.38-25.35,2.11-15.64,5.92-21.13,3.8-15.63-7.18-28.31-3.8-18.17,11.83-30,8.87-16.48-6.33-29.16-5.07-17.32,7.47-31.69,7.54-17.32-5.42-28.31-5.42-15.64,8-31.69,8S450.88,415,438.62,415c-14.36,0-18.61,5.08-18.61,5.08v13.52H712.86V401.49A23.31,23.31,0,0,0,701.45,404Z" fill="#1d2833"/><path d="M457.52,620.2h-22l51.29-194.48,51.05,2.09ZM438.35,618h17.72l78.56-188.15L488.47,428Z" fill="#1d2833"/><polygon points="442 619.11 434.4 649.11 442 649.11 452.57 619.11 442 619.11" fill="#1d2833"/><polygon points="700.38 620.2 678.38 620.2 678.1 619.53 598.65 429.26 600.67 428.42 679.83 618.02 697.55 618.02 647.21 427.12 649.32 426.57 700.38 620.2" fill="#1d2833"/><polygon points="693.9 619.11 701.5 649.11 693.9 649.11 683.33 619.11 693.9 619.11" fill="#1d2833"/><rect x="542.97" y="257.37" width="14.76" height="14.76" transform="translate(68 -109.83) rotate(12.14)" fill="#1d2833"/><path d="M558.72,277.71l-21.34-4.59L542,251.78l21.34,4.59Zm-20-5.43,19.2,4.13,4.13-19.2-19.2-4.13Z" fill="#1d2833"/><rect x="567.48" y="262.64" width="14.76" height="14.76" transform="translate(69.65 -114.87) rotate(12.14)" fill="#b353ee"/><rect x="591.99" y="267.91" width="14.76" height="14.76" transform="translate(71.31 -119.91) rotate(12.14)" fill="#fff"/><circle cx="545.08" cy="331.26" r="20.09" fill="#b353ee"/><path d="M545.06,347.63a16.38,16.38,0,1,1,15.17-10.17A16.29,16.29,0,0,1,545.06,347.63Zm0-31.66a15.28,15.28,0,1,0,5.77,1.14A15.33,15.33,0,0,0,545.1,316Z" fill="#1d2833"/><rect x="552.52" y="312.08" width="51.75" height="51.75" rx="7.49" transform="translate(355.76 -293.86) rotate(40.29)" fill="#1d2833"/><path d="M580.53,363.91l-28.09-23.82L576.26,312l28.09,23.81ZM554,340l26.43,22.41,22.4-26.43-26.43-22.4Z" fill="#fff"/><rect x="574.09" y="310.53" width="4.47" height="4.47" transform="translate(338.98 -298.49) rotate(40.29)" fill="#fff"/><rect x="527.72" y="323.66" width="4.77" height="4.77" transform="translate(163.14 -176.6) rotate(22.27)" fill="#1d2833"/><rect x="536.7" y="343.52" width="4.77" height="4.77" transform="translate(171.34 -178.52) rotate(22.27)" fill="#1d2833"/><rect x="548.7" y="314.22" width="4.77" height="4.77" transform="translate(161.13 -185.26) rotate(22.27)" fill="#1d2833"/><rect x="601.35" y="333.64" width="4.47" height="4.47" transform="translate(360.4 -310.64) rotate(40.29)" fill="#fff"/><rect x="550.98" y="337.79" width="4.47" height="4.47" transform="translate(351.13 -277.08) rotate(40.29)" fill="#fff"/><rect x="578.23" y="360.9" width="4.47" height="4.47" transform="translate(372.54 -289.23) rotate(40.29)" fill="#fff"/><rect x="578.16" y="333.71" width="1.32" height="9.19" transform="matrix(1, -0.08, 0.08, 1, -25.82, 48.67)" fill="#fff"/><rect x="574.22" y="337.65" width="9.19" height="1.32" transform="translate(-25.9 48.83) rotate(-4.73)" fill="#fff"/><rect x="525.43" y="316.44" width="16.68" height="1.32" transform="translate(37.84 690.63) rotate(-67.7)" fill="#1d2833"/><rect x="518.28" y="333.89" width="16.68" height="1.32" transform="translate(17.27 694.84) rotate(-67.7)" fill="#1d2833"/><circle cx="536.93" cy="309.39" r="2.38" fill="#1d2833"/><circle cx="523.46" cy="342.27" r="2.38" fill="#1d2833"/><rect x="545.41" y="330.44" width="129.72" height="9.1" transform="translate(26.75 714.67) rotate(-61.82)" fill="#b353ee"/><path d="M500.69,514H635.21l-33.56-80.37h-3.92s20.62,34.93,8.23,51.55S542.06,506.3,503,508.41Z" fill="#1d2833"/><path d="M342.48,639.39H250.73a43.94,43.94,0,0,0,42.66-54.51h6.43a43.94,43.94,0,0,0,42.66,54.51Z" fill="#1d2833"/><polygon points="302.56 592.49 291.15 592.49 270.45 530.37 323.27 530.37 302.56 592.49" fill="#eeeff4"/><path d="M291,543.56a203.15,203.15,0,0,1-21-1.12c-84.28-8.72-101.19-73.9-104.55-101.52l2.17-.26c3.29,27.1,19.88,91.05,102.61,99.61,22.53,2.33,43.26,1,61.61-4l.57,2.1A156.81,156.81,0,0,1,291,543.56Z" fill="#1d2833"/><path d="M334.39,200.64c.31-5.69-1.12-9-5.63-5.92S323.69,208,325.94,208s5.36-.56,5.07,3.66-1.12.85-4.79,3.95-.53,7.6,3.4,5.63,4.77,1.69,2,6.76,3.38,4.51,7.6,2.82,7.89,8.17,0,14.93-24.22,6.76-30.14,0-1.69-9-9.86-10.42-12.39-4.84-14.65-13.13-2.53-7.44-11.27-9.41-9.29-5.91-9-11.27-1.41-9.57-7.61-11.26-7-14.65-3.66-23.67,11.55-11.83,25.36-12.11,15.21-8.45,25.63-13,15.21-3.66,24.23-2,14.93-2.25,20.56-5.35,17.19-1.69,23.1,2.53,4.79,3.66,10.71,5.92,6.19,10.14,5.91,13.24,1.41,5.07,4.79,5.07,5.92,7,4.23,10.7.84,9,4.78,7.89,5.08,9,0,12.12,4,12.39-5.07,16.05-15.49,0-14.93-5.07a23.71,23.71,0,0,1-10.14,1.13c-5.91-.57-2.81-5.07-2.81-5.07a56.16,56.16,0,0,1-11.84,1.69c-5.35,0-.28-5.07-3.09-5.64s-5.92-.84-5.36,3.1-2.81,5.64-5.91,3.38,0,3.1-4.79,4S334.23,203.7,334.39,200.64Z" fill="#1d2833"/><path d="M442,650.2H406.88c-1.67,0-5.47.74-7,0-2.3-1.13-.18-1.51,1.39-2,2.39-.67,5.3-.57,7.77-.7,11-.56,22,.48,32.94.48Z" fill="#1d2833"/><path d="M289.39,639.39H233.85c-7.09,0-14.88.87-21.88-.12,5-4.43,15.3-2.06,21.41-2.06h56Z" fill="#1d2833"/><rect x="420.01" y="393.22" width="292.85" height="2.18" fill="#1d2833"/><rect x="473.9" y="379.8" width="14.09" height="3.52" fill="#1d2833"/><rect x="491.38" y="379.8" width="14.09" height="3.52" fill="#1d2833"/><rect x="508.86" y="379.8" width="14.09" height="3.52" fill="#1d2833"/><rect x="526.33" y="379.8" width="14.09" height="3.52" fill="#1d2833"/><rect x="543.81" y="379.8" width="9.95" height="3.52" fill="#1d2833"/><rect x="558.3" y="379.8" width="9.95" height="3.52" fill="#1d2833"/></svg>